<svg version="1.0" xmlns="http://www.w3.org/2000/svg" width="223.000000pt" height="107.000000pt" viewBox="0 0 223.000000 107.000000" preserveAspectRatio="xMidYMid meet">
<g transform="translate(0.000000,107.000000) scale(0.100000,-0.100000)"
fill="#000000" stroke="none">
<path d="M385 668 c-59 -178 -85 -281 -85 -341 l0 -67 55 0 55 0 0 68 c0 37 9
121 20 187 27 164 27 165 -10 165 -17 0 -33 -6 -35 -12z"/>
<path d="M605 668 c-60 -160 -85 -258 -85 -330 l0 -78 55 0 55 0 0 73 c0 39 9
126 20 192 26 159 26 155 -10 155 -17 0 -33 -6 -35 -12z"/>
<path d="M1250 608 c0 -40 -9 -127 -20 -193 -26 -160 -27 -155 13 -155 l33 0
42 138 c32 107 42 155 42 210 l0 72 -55 0 -55 0 0 -72z"/>
<path d="M1460 593 c0 -75 -16 -207 -36 -305 -5 -26 -4 -28 30 -28 l35 0 46
142 c39 120 45 153 43 208 l-3 65 -57 3 -58 3 0 -88z"/>
</g>
</svg>
